# xmcd CD database file
#
# Track frame offsets:
#	150
#	13207
#	27532
#	41490
#	55140
#	67512
#	79880
#	92477
#	105570
#	116345
#	128247
#	141597
#	154137
#	165742
#	179527
#	193507
#	206862
#	219877
#	232440
#	246855
#	260017
#	272640
#	286725
#	299387
#	310502
#	322910
#	336560
#
# Disc length: 4639 seconds
#
# Revision: 2
# Processed by: cddbd v1.5.1PL2 Copyright (c) Steve Scherf et al.
# Submitted via: CDex 1.51
#
DISCID=94121d1b
DTITLE=Slim Whitman - Rose Marie CD1
DYEAR=1900
DGENRE=
TTITLE0=I'll Do As Much For You Someday
TTITLE1=I'll Never Pass This Way Again
TTITLE2=Paint A Rose On The Garden Wall
TTITLE3=Tears Can Never Drown The Flame
TTITLE4=I'm Casting My Lasso Towards The Sky
TTITLE5=Wabash Waltz
TTITLE6=I'm Crying For You
TTITLE7=Birmingham Jail
TTITLE8=Let's Go To Church (& Dolores Watson)
TTITLE9=There's A Rainbow In Every Yeardrop
TTITLE10=Love Song Of The Waterfall
TTITLE11=My Love Is Growing Stale
TTITLE12=Bandera Waltz
TTITLE13=End Of The World
TTITLE14=In A Hundred Years Or More
TTITLE15=Why
TTITLE16=Cold Empty Arms
TTITLE17=Blue River
TTITLE18=Indian Love Call
TTITLE19=China Doll
TTITLE20=An Amateur In Love
TTITLE21=Song Of The Old Waterwheel
TTITLE22=By The Waters Of Minnetoka
TTITLE23=Keep It A Secret
TTITLE24=My Heart Is Broken In Three
TTITLE25=All That I'm Asking Is Sympathy
TTITLE26=How Can I Tell
EXTD=Disc one Of CD Box
EXTT0=
EXTT1=
EXTT2=
EXTT3=
EXTT4=
EXTT5=
EXTT6=
EXTT7=
EXTT8=
EXTT9=
EXTT10=
EXTT11=
EXTT12=
EXTT13=
EXTT14=
EXTT15=
EXTT16=
EXTT17=
EXTT18=
EXTT19=
EXTT20=
EXTT21=
EXTT22=
EXTT23=
EXTT24=
EXTT25=
EXTT26=
PLAYORDER=
